<svg id="图层_1" data-name="图层 1" xmlns="http://www.w3.org/2000/svg" viewBox="0 0 167.64 142.3"><defs><style>.cls-1{fill:#fff;}.cls-2,.cls-3,.cls-5{fill:none;}.cls-2,.cls-3{stroke:#000;}.cls-2{stroke-miterlimit:10;}.cls-3{stroke-linecap:square;}.cls-3,.cls-5{stroke-linejoin:round;stroke-width:0.8px;}.cls-4{fill:#e7211a;}.cls-5{stroke:#b0b0b0;}.cls-6{fill:#668fca;}.cls-7{fill:#f7cd6b;}.cls-8{fill:#e95571;}.cls-9{font-size:6.91px;font-family:TimesNewRomanPS-BoldMT, Times New Roman;font-weight:700;}.cls-10{letter-spacing:-0.02em;}</style></defs><polyline class="cls-1" points="82.24 61.62 163.4 85.21 166.29 21.97 81.54 0.48"/><polyline class="cls-2" points="82.24 61.62 163.4 85.21 166.29 21.97 81.54 0.48"/><polyline class="cls-1" points="82.24 61.62 31.66 104.02 28.54 39.16 81.54 0.48"/><polyline class="cls-2" points="82.24 61.62 31.66 104.02 28.54 39.16 81.54 0.48"/><polyline class="cls-1" points="82.24 61.62 31.66 104.02 117.69 132.12 163.4 85.21"/><polyline class="cls-2" points="82.24 61.62 31.66 104.02 117.69 132.12 163.4 85.21"/><line class="cls-3" x1="163.4" y1="85.21" x2="117.69" y2="132.12"/><path class="cls-4" d="M154.25,127.6l.48.45a4.15,4.15,0,0,0-.7.35,2.8,2.8,0,0,0-.52.42,1.62,1.62,0,0,0-.43.78.73.73,0,0,0,.25.64.58.58,0,0,0,.5.19,1.58,1.58,0,0,0,.72-.36l.35-.25a2.09,2.09,0,0,1,1.13-.47,1.5,1.5,0,0,1,1.45,1.51,2.41,2.41,0,0,1-.71,1.31,5,5,0,0,1-.58.51,4.71,4.71,0,0,1-.73.44l-.52-.48a3.73,3.73,0,0,0,.81-.35,2.52,2.52,0,0,0,.62-.5,1.59,1.59,0,0,0,.45-.81.78.78,0,0,0-.27-.68.76.76,0,0,0-.58-.23,1.56,1.56,0,0,0-.73.34l-.35.25a2.22,2.22,0,0,1-1.1.48,1.2,1.2,0,0,1-.89-.36,1.33,1.33,0,0,1-.45-1.06,2.05,2.05,0,0,1,.61-1.22,4.1,4.1,0,0,1,.53-.48A6.82,6.82,0,0,1,154.25,127.6Z" transform="translate(-2.56 -2.22)"/><polygon class="cls-4" points="152.49 124.27 153.12 123.59 157.72 124.83 154.64 121.96 155.09 121.48 158.78 124.91 158.15 125.58 153.55 124.34 156.63 127.21 156.18 127.7 152.49 124.27"/><path class="cls-4" d="M158.57,122.7l1.05-1.12a1.9,1.9,0,0,1,1.16-.68,1.42,1.42,0,0,1,1.11.45,1.4,1.4,0,0,1,.53,1.08,1.89,1.89,0,0,1-.59,1.2l-.59.62,1.49,1.38-.47.5Zm.88-.12,1.38,1.29.59-.62a1.09,1.09,0,0,0,.32-.71,1.07,1.07,0,0,0-1-1,1,1,0,0,0-.68.37Z" transform="translate(-2.56 -2.22)"/><polygon class="cls-4" points="162.24 120.34 162.99 119.53 160.18 116.91 159.54 117.96 159.08 117.54 159.72 116.5 160.19 115.99 163.46 119.03 164.21 118.22 164.63 118.61 162.66 120.73 162.24 120.34"/><polyline class="cls-5" points="157.01 91.77 75.14 67.57 74.13 5.89"/><polyline class="cls-5" points="141.57 107.61 58.03 81.92 56.22 18.96"/><polyline class="cls-5" points="125.13 124.48 39.87 97.14 37.16 32.87"/><line class="cls-3" x1="156.32" y1="91.57" x2="158.38" y2="92.18"/><path d="M166.18,101.66v.6a2.38,2.38,0,0,0-.61-.4,2,2,0,0,0-.69-.13,1.38,1.38,0,0,0-1.1.44,2.31,2.31,0,0,0,0,2.54,1.35,1.35,0,0,0,1.1.44,1.8,1.8,0,0,0,.69-.13,2,2,0,0,0,.61-.4v.59a2,2,0,0,1-.63.3,2.28,2.28,0,0,1-.7.1,2,2,0,0,1-1.5-.58,2.18,2.18,0,0,1-.55-1.59,2.21,2.21,0,0,1,.55-1.59,2,2,0,0,1,1.5-.58,2.71,2.71,0,0,1,.71.09A2.53,2.53,0,0,1,166.18,101.66Z" transform="translate(-2.56 -2.22)"/><path d="M170.2,101.66v.6a2.62,2.62,0,0,0-.62-.4,1.91,1.91,0,0,0-.68-.13,1.42,1.42,0,0,0-1.11.44,2.31,2.31,0,0,0,0,2.54,1.38,1.38,0,0,0,1.11.44,1.72,1.72,0,0,0,.68-.13,2.11,2.11,0,0,0,.62-.4v.59a2,2,0,0,1-.63.3,2.32,2.32,0,0,1-.7.1,2,2,0,0,1-1.51-.58,2.18,2.18,0,0,1-.54-1.59,2.21,2.21,0,0,1,.54-1.59,2,2,0,0,1,1.51-.58,2.63,2.63,0,0,1,.7.09A2.6,2.6,0,0,1,170.2,101.66Z" transform="translate(-2.56 -2.22)"/><line class="cls-3" x1="140.87" y1="107.4" x2="142.97" y2="108.05"/><polygon points="145.1 115.2 148.65 115.2 148.65 115.68 147.16 115.68 147.16 119.39 146.59 119.39 146.59 115.68 145.1 115.68 145.1 115.2"/><path d="M154.57,117.74v.6a2.34,2.34,0,0,0-.62-.4,2,2,0,0,0-.68-.13,1.39,1.39,0,0,0-1.11.44,2.31,2.31,0,0,0,0,2.54,1.39,1.39,0,0,0,1.11.44,1.75,1.75,0,0,0,.68-.13,2.11,2.11,0,0,0,.62-.4v.59a2.07,2.07,0,0,1-.64.3,2.57,2.57,0,0,1-.7.1,2,2,0,0,1-1.5-.58,2.18,2.18,0,0,1-.55-1.59,2.25,2.25,0,0,1,.55-1.6,2,2,0,0,1,1.5-.58,2.65,2.65,0,0,1,.71.1A2.6,2.6,0,0,1,154.57,117.74Z" transform="translate(-2.56 -2.22)"/><line class="cls-3" x1="124.41" y1="124.25" x2="126.57" y2="124.94"/><polygon points="129 132.32 132.54 132.32 132.54 132.79 131.05 132.79 131.05 136.51 130.48 136.51 130.48 132.79 129 132.79 129 132.32"/><polygon points="132.41 132.32 135.96 132.32 135.96 132.79 134.47 132.79 134.47 136.51 133.9 136.51 133.9 132.79 132.41 132.79 132.41 132.32"/><line class="cls-3" x1="31.66" y1="104.02" x2="117.69" y2="132.12"/><path class="cls-4" d="M62.3,135.8l-.2.64a3.59,3.59,0,0,0-.62-.48,3,3,0,0,0-.6-.29,1.55,1.55,0,0,0-.89,0,.72.72,0,0,0-.47.5.62.62,0,0,0,0,.54,1.56,1.56,0,0,0,.64.49l.37.2a2.22,2.22,0,0,1,.92.82,1.39,1.39,0,0,1,.06,1.05,1.32,1.32,0,0,1-.8.91,2.32,2.32,0,0,1-1.48-.07,3.86,3.86,0,0,1-.71-.3,4.43,4.43,0,0,1-.72-.47l.21-.67a3.45,3.45,0,0,0,.66.57,2.66,2.66,0,0,0,.72.35,1.56,1.56,0,0,0,.92.05.76.76,0,0,0,.5-.54.74.74,0,0,0,0-.62,1.69,1.69,0,0,0-.62-.52l-.37-.2a2.11,2.11,0,0,1-.92-.78,1.21,1.21,0,0,1-.06-1,1.27,1.27,0,0,1,.76-.86,2,2,0,0,1,1.36,0,4.16,4.16,0,0,1,.67.28C61.85,135.51,62.07,135.65,62.3,135.8Z" transform="translate(-2.56 -2.22)"/><polygon class="cls-4" points="61.09 133.83 61.97 134.1 62.85 138.79 64.1 134.77 64.73 134.96 63.24 139.77 62.36 139.5 61.48 134.81 60.23 138.84 59.6 138.64 61.09 133.83"/><path class="cls-4" d="M68.59,137.58l1.47.46a1.85,1.85,0,0,1,1.1.75,1.65,1.65,0,0,1-.66,2.14,1.87,1.87,0,0,1-1.34,0l-.81-.25-.6,1.93-.66-.2Zm.48.74-.56,1.81.82.25a1.06,1.06,0,0,0,.77,0,1.08,1.08,0,0,0,.42-1.34,1.07,1.07,0,0,0-.63-.46Z" transform="translate(-2.56 -2.22)"/><path class="cls-4" d="M71.86,143.27l2.27.7-.17.55-3-1,.17-.54,1.33-.72,1.06-.58a3,3,0,0,0,.62-.46,1.07,1.07,0,0,0,.27-.44.84.84,0,0,0-.08-.71,1.07,1.07,0,0,0-.62-.46,2.38,2.38,0,0,0-.68-.09,3.59,3.59,0,0,0-.82.1l.2-.66a4.44,4.44,0,0,1,.81,0,2.52,2.52,0,0,1,.65.11,1.88,1.88,0,0,1,1.07.75A1.28,1.28,0,0,1,75,141a1.44,1.44,0,0,1-.29.53,2.75,2.75,0,0,1-.6.5c-.07,0-.3.17-.68.38Z" transform="translate(-2.56 -2.22)"/><polyline class="cls-5" points="93.79 3.59 93.99 65.04 44.08 108.07"/><polyline class="cls-5" points="122.85 10.96 121.84 73.13 73.54 117.7"/><polyline class="cls-5" points="152.94 18.58 150.64 81.5 104.12 127.68"/><line class="cls-3" x1="44.51" y1="107.7" x2="43.2" y2="108.82"/><path d="M42,119.88v.6a2.34,2.34,0,0,0-.62-.4,1.75,1.75,0,0,0-.68-.13,1.4,1.4,0,0,0-1.11.44,2.31,2.31,0,0,0,0,2.54,1.4,1.4,0,0,0,1.11.44,1.59,1.59,0,0,0,.68-.14,1.89,1.89,0,0,0,.62-.39v.59a2.13,2.13,0,0,1-.63.3,2.71,2.71,0,0,1-.71.1,2,2,0,0,1-1.5-.58,2.18,2.18,0,0,1-.55-1.59,2.22,2.22,0,0,1,.55-1.6,2,2,0,0,1,1.5-.58,2.65,2.65,0,0,1,.71.1A2.6,2.6,0,0,1,42,119.88Z" transform="translate(-2.56 -2.22)"/><path d="M46,119.88v.6a2.34,2.34,0,0,0-.62-.4,1.77,1.77,0,0,0-.69-.13,1.38,1.38,0,0,0-1.1.44,2.31,2.31,0,0,0,0,2.54,1.38,1.38,0,0,0,1.1.44,1.61,1.61,0,0,0,.69-.14,1.89,1.89,0,0,0,.62-.39v.59a2.18,2.18,0,0,1-.64.3,2.63,2.63,0,0,1-.7.1,2,2,0,0,1-1.5-.58,2.18,2.18,0,0,1-.55-1.59,2.22,2.22,0,0,1,.55-1.6,2,2,0,0,1,1.5-.58,2.71,2.71,0,0,1,.71.1A2.6,2.6,0,0,1,46,119.88Z" transform="translate(-2.56 -2.22)"/><line class="cls-3" x1="73.97" y1="117.31" x2="72.7" y2="118.48"/><polygon points="65.65 127.17 69.2 127.17 69.2 127.64 67.7 127.64 67.7 131.36 67.14 131.36 67.14 127.64 65.65 127.64 65.65 127.17"/><path d="M75.11,129.71v.6a2,2,0,0,0-.61-.4,1.77,1.77,0,0,0-.69-.13,1.38,1.38,0,0,0-1.1.44,2.31,2.31,0,0,0,0,2.54,1.38,1.38,0,0,0,1.1.44,1.61,1.61,0,0,0,.69-.14,1.76,1.76,0,0,0,.61-.39v.59a2,2,0,0,1-.63.3,2.63,2.63,0,0,1-.7.1,2,2,0,0,1-1.5-.58,2.18,2.18,0,0,1-.55-1.59,2.22,2.22,0,0,1,.55-1.6,2,2,0,0,1,1.5-.58,2.71,2.71,0,0,1,.71.1A2.37,2.37,0,0,1,75.11,129.71Z" transform="translate(-2.56 -2.22)"/><line class="cls-3" x1="104.52" y1="127.28" x2="103.3" y2="128.49"/><polygon points="96.37 137.37 99.92 137.37 99.92 137.84 98.42 137.84 98.42 141.56 97.86 141.56 97.86 137.84 96.37 137.84 96.37 137.37"/><polygon points="99.79 137.37 103.33 137.37 103.33 137.84 101.84 137.84 101.84 141.56 101.27 141.56 101.27 137.84 99.79 137.84 99.79 137.37"/><line class="cls-3" x1="31.66" y1="104.02" x2="28.54" y2="39.16"/><path class="cls-4" d="M4.9,74.73a2.18,2.18,0,0,1,1.69.71,3.18,3.18,0,0,1,0,3.8,2.17,2.17,0,0,1-1.69.7,2.17,2.17,0,0,1-1.7-.7,3.14,3.14,0,0,1,0-3.8A2.17,2.17,0,0,1,4.9,74.73Zm0,.55a1.42,1.42,0,0,0-1.18.56,2.79,2.79,0,0,0,0,3,1.41,1.41,0,0,0,1.18.55,1.41,1.41,0,0,0,1.17-.55,2.79,2.79,0,0,0,0-3A1.41,1.41,0,0,0,4.9,75.28Z" transform="translate(-2.56 -2.22)"/><path class="cls-4" d="M9,75.38v1.79h.86a1.09,1.09,0,0,0,.74-.23,1,1,0,0,0,0-1.33,1.09,1.09,0,0,0-.74-.23Zm1.71,2.11a1.2,1.2,0,0,1,.43.32,4.18,4.18,0,0,1,.41.67l.69,1.37h-.73l-.64-1.29a2,2,0,0,0-.49-.67,1.1,1.1,0,0,0-.64-.16H9v2.12H8.29v-5H9.83a1.94,1.94,0,0,1,1.28.36,1.34,1.34,0,0,1,.43,1.09,1.37,1.37,0,0,1-.22.79A1.12,1.12,0,0,1,10.68,77.49Z" transform="translate(-2.56 -2.22)"/><polyline class="cls-5" points="31.6 102.78 82.23 60.45 163.45 84"/><polyline class="cls-5" points="31.21 94.68 82.14 52.79 163.81 76.09"/><polyline class="cls-5" points="30.82 86.48 82.05 45.05 164.18 68.09"/><polyline class="cls-5" points="30.42 78.19 81.96 37.22 164.55 60"/><polyline class="cls-5" points="30.02 69.8 81.87 29.31 164.93 51.82"/><polyline class="cls-5" points="29.61 61.31 81.78 21.31 165.3 43.54"/><polyline class="cls-5" points="29.19 52.72 81.68 13.23 165.69 35.17"/><polyline class="cls-5" points="28.77 44.02 81.59 5.05 166.07 26.7"/><line class="cls-3" x1="32.04" y1="102.41" x2="30.72" y2="103.52"/><path d="M20,106.72a1.24,1.24,0,0,1,1.08.56,3.71,3.71,0,0,1,0,3.23,1.23,1.23,0,0,1-1.08.55,1.21,1.21,0,0,1-1.08-.55,3.71,3.71,0,0,1,0-3.23A1.23,1.23,0,0,1,20,106.72Zm0,.45a.71.71,0,0,0-.66.43,3.92,3.92,0,0,0,0,2.59.72.72,0,0,0,1.32,0,3.92,3.92,0,0,0,0-2.59A.71.71,0,0,0,20,107.17Z" transform="translate(-2.56 -2.22)"/><rect x="19.92" y="108.06" width="0.59" height="0.71"/><path d="M25.52,106.72a1.24,1.24,0,0,1,1.08.56,3.71,3.71,0,0,1,0,3.23,1.23,1.23,0,0,1-1.08.55,1.21,1.21,0,0,1-1.08-.55,3.71,3.71,0,0,1,0-3.23A1.23,1.23,0,0,1,25.52,106.72Zm0,.45a.71.71,0,0,0-.66.43,3.92,3.92,0,0,0,0,2.59.71.71,0,0,0,.66.43.7.7,0,0,0,.66-.43,3.92,3.92,0,0,0,0-2.59A.7.7,0,0,0,25.52,107.17Z" transform="translate(-2.56 -2.22)"/><line class="cls-3" x1="31.66" y1="94.31" x2="30.32" y2="95.41"/><path d="M19.57,98.6a1.23,1.23,0,0,1,1.08.56,2.9,2.9,0,0,1,.37,1.62,2.86,2.86,0,0,1-.37,1.61,1.32,1.32,0,0,1-2.16,0,2.86,2.86,0,0,1-.37-1.61,2.9,2.9,0,0,1,.37-1.62A1.23,1.23,0,0,1,19.57,98.6Zm0,.45a.71.71,0,0,0-.66.43,3.92,3.92,0,0,0,0,2.59.73.73,0,0,0,1.33,0,4.1,4.1,0,0,0,0-2.59A.71.71,0,0,0,19.57,99.05Z" transform="translate(-2.56 -2.22)"/><rect x="19.46" y="99.94" width="0.59" height="0.71"/><path d="M23.86,98.68h2.22v.47H24.37v1a1.14,1.14,0,0,1,.25-.06l.25,0a1.61,1.61,0,0,1,1.11.38,1.54,1.54,0,0,1,0,2.1,1.73,1.73,0,0,1-1.19.37,5.09,5.09,0,0,1-.54,0,3.06,3.06,0,0,1-.56-.14v-.57a2,2,0,0,0,.52.21,2.12,2.12,0,0,0,.57.06,1.12,1.12,0,0,0,.77-.25.88.88,0,0,0,.28-.7.9.9,0,0,0-.28-.69,1.12,1.12,0,0,0-.77-.26,1.74,1.74,0,0,0-.45.06,2.06,2.06,0,0,0-.46.15Z" transform="translate(-2.56 -2.22)"/><line class="cls-3" x1="31.27" y1="86.12" x2="29.92" y2="87.2"/><polygon points="15.43 91.96 16.36 91.96 16.36 88.76 15.35 88.96 15.35 88.45 16.35 88.25 16.92 88.25 16.92 91.96 17.85 91.96 17.85 92.44 15.43 92.44 15.43 91.96"/><rect x="18.99" y="91.73" width="0.59" height="0.71"/><path d="M24.6,90.39a1.24,1.24,0,0,1,1.08.56,3.71,3.71,0,0,1,0,3.23,1.23,1.23,0,0,1-1.08.55,1.21,1.21,0,0,1-1.08-.55,3.71,3.71,0,0,1,0-3.23A1.23,1.23,0,0,1,24.6,90.39Zm0,.45a.71.71,0,0,0-.66.43,3.92,3.92,0,0,0,0,2.59.72.72,0,0,0,1.32,0,3.92,3.92,0,0,0,0-2.59A.71.71,0,0,0,24.6,90.84Z" transform="translate(-2.56 -2.22)"/><line class="cls-3" x1="30.87" y1="77.83" x2="29.52" y2="78.9"/><polygon points="14.96 83.65 15.89 83.65 15.89 80.45 14.88 80.66 14.88 80.14 15.88 79.94 16.45 79.94 16.45 83.65 17.38 83.65 17.38 84.13 14.96 84.13 14.96 83.65"/><rect x="18.53" y="83.42" width="0.59" height="0.71"/><path d="M22.92,82.15h2.23v.48H23.44v1a1.14,1.14,0,0,1,.25-.06l.25,0a1.61,1.61,0,0,1,1.11.38,1.39,1.39,0,0,1,.41,1A1.34,1.34,0,0,1,25,86.06a1.8,1.8,0,0,1-1.19.36,3.27,3.27,0,0,1-.54,0,2.38,2.38,0,0,1-.56-.13v-.57a2.36,2.36,0,0,0,.52.21,2.12,2.12,0,0,0,.57.06,1.12,1.12,0,0,0,.77-.25.92.92,0,0,0,.28-.7.94.94,0,0,0-.28-.69,1.12,1.12,0,0,0-.77-.26,1.82,1.82,0,0,0-.46.06,2.24,2.24,0,0,0-.46.15Z" transform="translate(-2.56 -2.22)"/><line class="cls-3" x1="30.47" y1="69.45" x2="29.11" y2="70.51"/><path d="M17.44,77.46h2v.48H16.76v-.48l.88-.89.7-.73a2.31,2.31,0,0,0,.38-.52.91.91,0,0,0,.11-.42.7.7,0,0,0-.24-.54.85.85,0,0,0-.61-.21,2,2,0,0,0-.56.09,4.22,4.22,0,0,0-.63.28V74a5.27,5.27,0,0,1,.64-.21,2.76,2.76,0,0,1,.54-.07A1.56,1.56,0,0,1,19,74a1.08,1.08,0,0,1,.39.87,1.16,1.16,0,0,1-.1.49,2.31,2.31,0,0,1-.35.55c-.05,0-.19.21-.45.47Z" transform="translate(-2.56 -2.22)"/><rect x="18.05" y="75.01" width="0.59" height="0.71"/><path d="M23.66,73.67a1.22,1.22,0,0,1,1.07.56,2.92,2.92,0,0,1,.38,1.62,2.83,2.83,0,0,1-.38,1.61,1.23,1.23,0,0,1-1.08.56,1.2,1.2,0,0,1-1.07-.56,2.84,2.84,0,0,1-.37-1.61,2.92,2.92,0,0,1,.37-1.62A1.22,1.22,0,0,1,23.66,73.67Zm0,.45a.7.7,0,0,0-.66.43,3.92,3.92,0,0,0,0,2.59.7.7,0,0,0,.66.43.71.71,0,0,0,.66-.43,3.92,3.92,0,0,0,0-2.59A.71.71,0,0,0,23.66,74.12Z" transform="translate(-2.56 -2.22)"/><line class="cls-3" x1="30.06" y1="60.96" x2="28.69" y2="62.01"/><path d="M17,69h2v.47H16.28V69l.88-.9.7-.73a2.2,2.2,0,0,0,.38-.51,1,1,0,0,0,.11-.42.71.71,0,0,0-.24-.55.9.9,0,0,0-.61-.21,2.41,2.41,0,0,0-.56.09,3.48,3.48,0,0,0-.63.29v-.58a5.27,5.27,0,0,1,.64-.21,2.76,2.76,0,0,1,.54-.07,1.56,1.56,0,0,1,1,.33,1.08,1.08,0,0,1,.39.87,1.16,1.16,0,0,1-.1.49,2.13,2.13,0,0,1-.35.55s-.19.21-.45.47Z" transform="translate(-2.56 -2.22)"/><rect x="17.57" y="66.5" width="0.59" height="0.71"/><path d="M22,65.24H24.2v.48H22.49v1l.25-.07.24,0a1.53,1.53,0,0,1,1.11.39,1.5,1.5,0,0,1,0,2.09,1.72,1.72,0,0,1-1.18.37,4.9,4.9,0,0,1-.54,0,4.22,4.22,0,0,1-.57-.13v-.57a2,2,0,0,0,.53.2,2,2,0,0,0,.57.07,1.07,1.07,0,0,0,.77-.26,1,1,0,0,0,0-1.38,1.07,1.07,0,0,0-.77-.26,2.4,2.4,0,0,0-.46,0,2.3,2.3,0,0,0-.46.16Z" transform="translate(-2.56 -2.22)"/><line class="cls-3" x1="29.65" y1="52.37" x2="28.27" y2="53.41"/><path d="M17.71,58.56a1.06,1.06,0,0,1,.63.37,1,1,0,0,1,.23.67,1.18,1.18,0,0,1-.42,1,2,2,0,0,1-1.22.33,3.55,3.55,0,0,1-1.12-.2v-.55a2.18,2.18,0,0,0,.52.21,2.71,2.71,0,0,0,.58.07,1.36,1.36,0,0,0,.82-.21A.75.75,0,0,0,18,59.6a.7.7,0,0,0-.26-.57,1.11,1.11,0,0,0-.73-.21h-.48v-.47h.51a1,1,0,0,0,.64-.17.55.55,0,0,0,.22-.48.61.61,0,0,0-.23-.5A1.11,1.11,0,0,0,17,57a3.13,3.13,0,0,0-.5,0c-.17,0-.37.09-.58.16v-.51a5,5,0,0,1,.6-.13,3.39,3.39,0,0,1,.54-.05,1.58,1.58,0,0,1,1,.3.92.92,0,0,1,.38.79.86.86,0,0,1-.2.59A1,1,0,0,1,17.71,58.56Z" transform="translate(-2.56 -2.22)"/><rect x="17.09" y="57.89" width="0.59" height="0.71"/><path d="M22.69,56.55a1.23,1.23,0,0,1,1.08.56,2.94,2.94,0,0,1,.37,1.62,2.9,2.9,0,0,1-.37,1.62,1.34,1.34,0,0,1-2.16,0,2.9,2.9,0,0,1-.37-1.62,2.94,2.94,0,0,1,.37-1.62A1.23,1.23,0,0,1,22.69,56.55Zm0,.45a.72.72,0,0,0-.66.43,2.93,2.93,0,0,0-.22,1.3A2.88,2.88,0,0,0,22,60a.72.72,0,0,0,1.33,0,3,3,0,0,0,.21-1.29,3.1,3.1,0,0,0-.21-1.3A.73.73,0,0,0,22.69,57Z" transform="translate(-2.56 -2.22)"/><line class="cls-3" x1="29.24" y1="43.68" x2="27.85" y2="44.71"/><path d="M17.22,49.85a1.1,1.1,0,0,1,.63.36,1.07,1.07,0,0,1,.23.68,1.16,1.16,0,0,1-.42,1,1.92,1.92,0,0,1-1.22.34,2.64,2.64,0,0,1-.55-.06,3.21,3.21,0,0,1-.57-.15v-.54a1.71,1.71,0,0,0,.52.2,2.2,2.2,0,0,0,.58.07,1.44,1.44,0,0,0,.82-.2.75.75,0,0,0,.28-.62.72.72,0,0,0-.26-.58,1.2,1.2,0,0,0-.73-.21H16v-.46h.52a1,1,0,0,0,.63-.17.56.56,0,0,0,.23-.48.6.6,0,0,0-.23-.5,1.15,1.15,0,0,0-.66-.17,2.29,2.29,0,0,0-.5,0,5.55,5.55,0,0,0-.58.15V48a3.61,3.61,0,0,1,.6-.13,3.27,3.27,0,0,1,.53,0,1.65,1.65,0,0,1,1,.29.94.94,0,0,1,.38.8.89.89,0,0,1-.2.58A1,1,0,0,1,17.22,49.85Z" transform="translate(-2.56 -2.22)"/><rect x="16.6" y="49.18" width="0.59" height="0.71"/><path d="M21,47.91h2.23v.48H21.51v1a1.14,1.14,0,0,1,.25-.06l.25,0a1.61,1.61,0,0,1,1.11.38,1.39,1.39,0,0,1,.41,1,1.34,1.34,0,0,1-.42,1.06,1.8,1.8,0,0,1-1.19.37,3.29,3.29,0,0,1-.54,0,2.46,2.46,0,0,1-.57-.13v-.57a2.44,2.44,0,0,0,.53.21,2.12,2.12,0,0,0,.57.06,1.12,1.12,0,0,0,.77-.25.92.92,0,0,0,.28-.7.94.94,0,0,0-.28-.69,1.12,1.12,0,0,0-.77-.26,1.82,1.82,0,0,0-.46.06A2.24,2.24,0,0,0,21,50Z" transform="translate(-2.56 -2.22)"/><polygon class="cls-6" points="84.21 64.38 97.96 68.4 89.82 75.52 75.94 71.38 84.21 64.38"/><polygon class="cls-6" points="84.21 64.38 83.69 13.61 97.93 17.33 97.96 68.4 84.21 64.38"/><polygon class="cls-6" points="84.21 64.38 75.94 71.38 75.12 20.09 83.69 13.61 84.21 64.38"/><polygon class="cls-7" points="111.94 72.48 126.16 76.63 118.31 84 103.94 79.72 111.94 72.48"/><polygon class="cls-6" points="97.96 68.4 97.93 17.33 89.5 23.92 89.82 75.52 97.96 68.4"/><polygon class="cls-7" points="111.94 72.48 112.3 34.46 126.9 38.39 126.16 76.63 111.94 72.48"/><polygon class="cls-6" points="75.94 71.38 89.82 75.52 89.5 23.92 75.12 20.09 75.94 71.38"/><polygon class="cls-7" points="111.94 72.48 103.94 79.72 104.08 41.31 112.3 34.46 111.94 72.48"/><polygon class="cls-6" points="67.42 78.59 81.44 82.84 72.8 90.39 58.65 86.01 67.42 78.59"/><polygon class="cls-8" points="140.63 80.86 155.35 85.16 147.8 92.78 132.92 88.35 140.63 80.86"/><polygon class="cls-8" points="140.63 80.86 141.29 58.42 156.25 62.58 155.35 85.16 140.63 80.86"/><polygon class="cls-7" points="126.16 76.63 126.9 38.39 118.84 45.37 118.31 84 126.16 76.63"/><polygon class="cls-6" points="67.42 78.59 66.61 42.05 80.99 46.09 81.44 82.84 67.42 78.59"/><polygon class="cls-6" points="83.69 13.61 75.12 20.09 89.5 23.92 97.93 17.33 83.69 13.61"/><polygon class="cls-8" points="140.63 80.86 132.92 88.35 133.47 65.68 141.29 58.42 140.63 80.86"/><polygon class="cls-7" points="103.94 79.72 118.31 84 118.84 45.37 104.08 41.31 103.94 79.72"/><polygon class="cls-6" points="67.42 78.59 58.65 86.01 57.6 49.1 66.61 42.05 67.42 78.59"/><polygon class="cls-7" points="112.3 34.46 104.08 41.31 118.84 45.37 126.9 38.39 112.3 34.46"/><polygon class="cls-8" points="155.35 85.16 156.25 62.58 148.59 69.98 147.8 92.78 155.35 85.16"/><polygon class="cls-6" points="81.44 82.84 80.99 46.09 72.12 53.27 72.8 90.39 81.44 82.84"/><polygon class="cls-7" points="95.7 87.17 110.21 91.58 101.86 99.4 87.2 94.86 95.7 87.17"/><polygon class="cls-8" points="132.92 88.35 147.8 92.78 148.59 69.98 133.47 65.68 132.92 88.35"/><polygon class="cls-7" points="95.7 87.17 95.63 57 110.46 61.23 110.21 91.58 95.7 87.17"/><polygon class="cls-6" points="58.65 86.01 72.8 90.39 72.12 53.27 57.6 49.1 58.65 86.01"/><polygon class="cls-8" points="141.29 58.42 133.47 65.68 148.59 69.98 156.25 62.58 141.29 58.42"/><polygon class="cls-7" points="95.7 87.17 87.2 94.86 86.95 64.38 95.63 57 95.7 87.17"/><polygon class="cls-6" points="66.61 42.05 57.6 49.1 72.12 53.27 80.99 46.09 66.61 42.05"/><polygon class="cls-6" points="49.61 93.66 63.9 98.18 54.72 106.2 40.29 101.54 49.61 93.66"/><polygon class="cls-6" points="49.61 93.66 48.82 71.16 63.34 75.55 63.9 98.18 49.61 93.66"/><polygon class="cls-7" points="110.21 91.58 110.46 61.23 101.93 68.75 101.86 99.4 110.21 91.58"/><polygon class="cls-6" points="49.61 93.66 40.29 101.54 39.34 78.82 48.82 71.16 49.61 93.66"/><polygon class="cls-8" points="124.98 96.07 125.35 76.14 140.6 80.59 140.01 100.64 124.98 96.07"/><polygon class="cls-8" points="124.98 96.07 140.01 100.64 131.98 108.74 116.79 104.03 124.98 96.07"/><polygon class="cls-7" points="87.2 94.86 101.86 99.4 101.93 68.75 86.95 64.38 87.2 94.86"/><polygon class="cls-8" points="124.98 96.07 116.79 104.03 117.05 83.9 125.35 76.14 124.98 96.07"/><polygon class="cls-7" points="95.63 57 86.95 64.38 101.93 68.75 110.46 61.23 95.63 57"/><polygon class="cls-6" points="63.9 98.18 63.34 75.55 53.99 83.35 54.72 106.2 63.9 98.18"/><polygon class="cls-6" points="40.29 101.54 54.72 106.2 53.99 83.35 39.34 78.82 40.29 101.54"/><polygon class="cls-6" points="48.82 71.16 39.34 78.82 53.99 83.35 63.34 75.55 48.82 71.16"/><polygon class="cls-8" points="140.01 100.64 140.6 80.59 132.47 88.49 131.98 108.74 140.01 100.64"/><polygon class="cls-7" points="78.45 102.78 78.14 81.85 93.17 86.42 93.26 107.47 78.45 102.78"/><polygon class="cls-7" points="78.45 102.78 93.26 107.47 84.38 115.79 69.41 110.95 78.45 102.78"/><polygon class="cls-8" points="125.35 76.14 117.05 83.9 132.47 88.49 140.6 80.59 125.35 76.14"/><polygon class="cls-8" points="116.79 104.03 131.98 108.74 132.47 88.49 117.05 83.9 116.79 104.03"/><polygon class="cls-7" points="78.45 102.78 69.41 110.95 68.96 89.82 78.14 81.85 78.45 102.78"/><polygon class="cls-7" points="93.26 107.47 93.17 86.42 84.15 94.53 84.38 115.79 93.26 107.47"/><polygon class="cls-7" points="78.14 81.85 68.96 89.82 84.15 94.53 93.17 86.42 78.14 81.85"/><polygon class="cls-7" points="69.41 110.95 84.38 115.79 84.15 94.53 68.96 89.82 69.41 110.95"/><polygon class="cls-8" points="108.34 112.24 108.45 95.76 124 100.52 123.7 117.1 108.34 112.24"/><polygon class="cls-8" points="108.34 112.24 123.7 117.1 115.14 125.74 99.62 120.72 108.34 112.24"/><polygon class="cls-8" points="108.34 112.24 99.62 120.72 99.63 104.07 108.45 95.76 108.34 112.24"/><polygon class="cls-8" points="123.7 117.1 124 100.52 115.34 108.99 115.14 125.74 123.7 117.1"/><polygon class="cls-8" points="108.45 95.76 99.63 104.07 115.34 108.99 124 100.52 108.45 95.76"/><polygon class="cls-8" points="99.62 120.72 115.14 125.74 115.34 108.99 99.63 104.07 99.62 120.72"/><path d="M93,17.4a1.24,1.24,0,0,1,.64.38,1.12,1.12,0,0,1,.22.69,1.07,1.07,0,0,1-.48,1,2.53,2.53,0,0,1-1.39.32,4.74,4.74,0,0,1-.65,0,3.5,3.5,0,0,1-.64-.15V18.7a2.68,2.68,0,0,0,1.19.31,1.19,1.19,0,0,0,.66-.15.49.49,0,0,0,.23-.43.47.47,0,0,0-.24-.43,1.26,1.26,0,0,0-.69-.15h-.43v-.7h.45a1.22,1.22,0,0,0,.61-.12.44.44,0,0,0,.2-.39.43.43,0,0,0-.2-.38,1,1,0,0,0-.54-.13,2.39,2.39,0,0,0-.53.06,2.55,2.55,0,0,0-.53.18v-.8a4.7,4.7,0,0,1,.63-.13,4.44,4.44,0,0,1,.62,0,2.23,2.23,0,0,1,1.22.27.91.91,0,0,1,.41.81.94.94,0,0,1-.19.6A1,1,0,0,1,93,17.4Z" transform="translate(-2.56 -2.22)"/><rect x="92.29" y="16.36" width="1.01" height="1.09"/><path d="M98.11,18.87H100v.79h-3v-.79l1.53-1.35a1.45,1.45,0,0,0,.31-.37.78.78,0,0,0,.1-.36.6.6,0,0,0-.21-.48.73.73,0,0,0-.52-.18,1.63,1.63,0,0,0-.55.11,3.53,3.53,0,0,0-.65.32v-.92a4.86,4.86,0,0,1,.73-.18,4,4,0,0,1,.69-.07,1.81,1.81,0,0,1,1.17.34,1.1,1.1,0,0,1,.42.92,1.19,1.19,0,0,1-.18.64,3.75,3.75,0,0,1-.74.79Z" transform="translate(-2.56 -2.22)"/><path d="M121.11,40.15H123V41h-3v-.8l1.53-1.35a1.42,1.42,0,0,0,.31-.36.82.82,0,0,0,.1-.37.58.58,0,0,0-.21-.47.74.74,0,0,0-.52-.19,1.63,1.63,0,0,0-.55.11,5.53,5.53,0,0,0-.65.32v-.92a7.05,7.05,0,0,1,.73-.18,4.23,4.23,0,0,1,.7-.06,1.8,1.8,0,0,1,1.16.33,1.11,1.11,0,0,1,.42.92,1.34,1.34,0,0,1-.17.65,4.2,4.2,0,0,1-.75.78Z" transform="translate(-2.56 -2.22)"/><rect x="121.48" y="37.64" width="1.01" height="1.09"/><path d="M128.32,38.69a1.26,1.26,0,0,1,.65.37,1.15,1.15,0,0,1,.22.7,1.08,1.08,0,0,1-.48.94,2.44,2.44,0,0,1-1.39.32,4.89,4.89,0,0,1-.66-.05,3.4,3.4,0,0,1-.63-.15V40a3.69,3.69,0,0,0,.6.23,2.38,2.38,0,0,0,.59.07,1.16,1.16,0,0,0,.65-.15.48.48,0,0,0,.23-.42.5.5,0,0,0-.23-.44,1.41,1.41,0,0,0-.69-.15h-.43v-.69h.45a1.07,1.07,0,0,0,.6-.13.41.41,0,0,0,.21-.39.43.43,0,0,0-.2-.37,1,1,0,0,0-.55-.14,2.49,2.49,0,0,0-.53.07,3,3,0,0,0-.53.17v-.79a5.27,5.27,0,0,1,.64-.14,4.21,4.21,0,0,1,.62,0,2.23,2.23,0,0,1,1.22.27.91.91,0,0,1,.41.8.93.93,0,0,1-.2.61A1.06,1.06,0,0,1,128.32,38.69Z" transform="translate(-2.56 -2.22)"/><path d="M131.56,38.83a.49.49,0,0,0,.42-.18.9.9,0,0,0,.15-.55.92.92,0,0,0-.15-.55.5.5,0,0,0-.42-.19.49.49,0,0,0-.43.19.86.86,0,0,0-.14.55.84.84,0,0,0,.14.55A.48.48,0,0,0,131.56,38.83Zm-1.34,2v-.77a2.75,2.75,0,0,0,.5.18,1.82,1.82,0,0,0,.46.06,1,1,0,0,0,.76-.27,1.2,1.2,0,0,0,.31-.8,1.25,1.25,0,0,1-.41.22,1.64,1.64,0,0,1-.46.07,1.4,1.4,0,0,1-1-.38,1.25,1.25,0,0,1-.39-1,1.4,1.4,0,0,1,.43-1.08,1.69,1.69,0,0,1,1.18-.41,1.55,1.55,0,0,1,1.27.55,2.45,2.45,0,0,1,.45,1.57,2.35,2.35,0,0,1-.53,1.63,1.79,1.79,0,0,1-1.43.59,5.1,5.1,0,0,1-.57,0A3.16,3.16,0,0,1,130.22,40.85Z" transform="translate(-2.56 -2.22)"/><polygon points="147.15 62.42 148.1 62.42 148.1 59.72 147.13 59.92 147.13 59.18 148.1 58.98 149.13 58.98 149.13 62.42 150.08 62.42 150.08 63.17 147.15 63.17 147.15 62.42"/><rect x="151.07" y="62.09" width="1.01" height="1.09"/><path d="M157.17,61.2h1.2v2.64h.6v.79h-.6v.76h-1v-.76h-1.86V63.7Zm.18.89-1.19,1.75h1.19Z" transform="translate(-2.56 -2.22)"/><polygon points="157.35 62.42 158.3 62.42 158.3 59.72 157.32 59.92 157.32 59.18 158.3 58.98 159.33 58.98 159.33 62.42 160.28 62.42 160.28 63.17 157.35 63.17 157.35 62.42"/><path d="M74.59,47.94h1.85v.79h-3v-.79l1.53-1.35a1.42,1.42,0,0,0,.31-.36.84.84,0,0,0,.09-.37.6.6,0,0,0-.2-.47.69.69,0,0,0-.52-.19,1.63,1.63,0,0,0-.55.11,3.89,3.89,0,0,0-.65.32v-.92a4.86,4.86,0,0,1,.73-.18,4,4,0,0,1,.69-.07A1.83,1.83,0,0,1,76,44.8a1.11,1.11,0,0,1,.42.92,1.19,1.19,0,0,1-.18.64,4.05,4.05,0,0,1-.74.79Z" transform="translate(-2.56 -2.22)"/><rect x="74.97" y="45.43" width="1.01" height="1.09"/><path d="M80.79,47.94h1.84v.79h-3v-.79l1.53-1.35a1.42,1.42,0,0,0,.31-.36.86.86,0,0,0,.1-.37.6.6,0,0,0-.2-.47.73.73,0,0,0-.53-.19,1.63,1.63,0,0,0-.55.11,4.31,4.31,0,0,0-.65.32v-.92a5.18,5.18,0,0,1,.73-.18,4.26,4.26,0,0,1,.7-.07,1.8,1.8,0,0,1,1.16.34,1.11,1.11,0,0,1,.42.92,1.28,1.28,0,0,1-.17.64,3.87,3.87,0,0,1-.75.79Z" transform="translate(-2.56 -2.22)"/><path d="M84.6,45.66a.53.53,0,0,0,.14.39.54.54,0,0,0,.4.13.54.54,0,0,0,.39-.13.53.53,0,0,0,.14-.39.51.51,0,0,0-.14-.38.55.55,0,0,0-.39-.14.54.54,0,0,0-.4.14A.52.52,0,0,0,84.6,45.66Zm-.25.84a1.08,1.08,0,0,1-.58-.35.92.92,0,0,1-.19-.6.93.93,0,0,1,.39-.81,2.08,2.08,0,0,1,1.17-.28,2,2,0,0,1,1.15.28,1,1,0,0,1,.2,1.41,1.09,1.09,0,0,1-.57.35,1.25,1.25,0,0,1,.64.39,1,1,0,0,1,.22.67,1.1,1.1,0,0,1-.41.93,2.54,2.54,0,0,1-2.47,0,1.08,1.08,0,0,1-.42-.93,1,1,0,0,1,.22-.67A1.24,1.24,0,0,1,84.35,46.5Zm.79.36a.58.58,0,0,0-.63.64.66.66,0,0,0,.16.48.65.65,0,0,0,.47.16A.67.67,0,0,0,85.6,48a.71.71,0,0,0,.16-.48A.65.65,0,0,0,85.6,47,.64.64,0,0,0,85.14,46.86Z" transform="translate(-2.56 -2.22)"/><polygon points="100.69 61.07 101.64 61.07 101.64 58.36 100.66 58.56 100.66 57.83 101.64 57.63 102.67 57.63 102.67 61.07 103.62 61.07 103.62 61.82 100.69 61.82 100.69 61.07"/><rect x="104.61" y="60.73" width="1.01" height="1.09"/><path d="M110.24,61a.52.52,0,0,0,.13.38.57.57,0,0,0,.4.13.52.52,0,1,0-.4-.89A.52.52,0,0,0,110.24,61Zm-.26.84a1.11,1.11,0,0,1-.57-.35.94.94,0,0,1-.2-.6.9.9,0,0,1,.4-.81,2,2,0,0,1,1.16-.28,2,2,0,0,1,1.16.28.93.93,0,0,1,.4.81.94.94,0,0,1-.2.6,1.15,1.15,0,0,1-.58.35,1.23,1.23,0,0,1,.65.38,1.08,1.08,0,0,1,.22.67,1.11,1.11,0,0,1-.42.94,2,2,0,0,1-1.23.31,2,2,0,0,1-1.24-.31,1.13,1.13,0,0,1-.41-.94,1,1,0,0,1,.22-.67A1.2,1.2,0,0,1,110,61.81Zm.79.35a.59.59,0,0,0-.46.17.64.64,0,0,0-.17.47.65.65,0,0,0,.17.48.59.59,0,0,0,.46.16.61.61,0,0,0,.46-.16.65.65,0,0,0,.16-.48.64.64,0,0,0-.16-.47A.62.62,0,0,0,110.77,62.16Z" transform="translate(-2.56 -2.22)"/><polygon points="110.6 57.63 113.76 57.63 113.76 58.23 112.12 61.82 111.07 61.82 112.62 58.42 110.6 58.42 110.6 57.63"/><polygon points="131.04 80.64 132 80.64 132 77.93 131.02 78.13 131.02 77.4 131.99 77.19 133.02 77.19 133.02 80.64 133.98 80.64 133.98 81.39 131.04 81.39 131.04 80.64"/><rect x="134.96" y="80.3" width="1.01" height="1.09"/><path d="M140.78,82.82h1.85v.79h-3v-.79l1.53-1.36a1.42,1.42,0,0,0,.31-.36.78.78,0,0,0,.09-.37.62.62,0,0,0-.2-.47.73.73,0,0,0-.52-.18,1.63,1.63,0,0,0-.55.11,3.24,3.24,0,0,0-.65.32v-.92a6,6,0,0,1,.73-.19,4,4,0,0,1,.69-.06,1.85,1.85,0,0,1,1.17.33,1.11,1.11,0,0,1,.42.92,1.25,1.25,0,0,1-.18.65,4.36,4.36,0,0,1-.74.79Z" transform="translate(-2.56 -2.22)"/><path d="M145.81,81.35a1.2,1.2,0,0,1,.65.38,1.1,1.1,0,0,1,.22.69,1.08,1.08,0,0,1-.48.94,2.44,2.44,0,0,1-1.39.32,3.67,3.67,0,0,1-.66-.05,3.4,3.4,0,0,1-.63-.15v-.83a3,3,0,0,0,.6.23,2.38,2.38,0,0,0,.59.07,1.08,1.08,0,0,0,.65-.15.47.47,0,0,0,.23-.42.48.48,0,0,0-.23-.43,1.31,1.31,0,0,0-.69-.15h-.43v-.7h.45a1.07,1.07,0,0,0,.6-.13.41.41,0,0,0,.21-.39.43.43,0,0,0-.2-.37,1,1,0,0,0-.55-.13,2.46,2.46,0,0,0-.53.06,4,4,0,0,0-.53.17v-.79a3.83,3.83,0,0,1,.64-.13,4.21,4.21,0,0,1,.62,0,2.23,2.23,0,0,1,1.22.27.91.91,0,0,1,.41.81.92.92,0,0,1-.2.6A1,1,0,0,1,145.81,81.35Z" transform="translate(-2.56 -2.22)"/><polygon points="52.98 75.55 53.94 75.55 53.94 72.84 52.96 73.04 52.96 72.3 53.93 72.1 54.96 72.1 54.96 75.55 55.92 75.55 55.92 76.3 52.98 76.3 52.98 75.55"/><rect x="56.9" y="75.21" width="1.01" height="1.09"/><path d="M63.74,76.25a1.29,1.29,0,0,1,.65.38,1.15,1.15,0,0,1,.22.7,1.06,1.06,0,0,1-.48.94,2.44,2.44,0,0,1-1.39.32,4.62,4.62,0,0,1-.65,0,3.32,3.32,0,0,1-.64-.15v-.83a3.69,3.69,0,0,0,.6.23,2.38,2.38,0,0,0,.59.07,1.13,1.13,0,0,0,.65-.15.51.51,0,0,0,0-.86,1.41,1.41,0,0,0-.69-.15h-.43V76h.45a1.13,1.13,0,0,0,.61-.13.46.46,0,0,0,0-.76,1,1,0,0,0-.55-.14,2.32,2.32,0,0,0-.52.07,2.52,2.52,0,0,0-.53.17v-.8c.21,0,.42-.1.63-.13a4.3,4.3,0,0,1,.62,0,2.23,2.23,0,0,1,1.22.27.91.91,0,0,1,.41.8.93.93,0,0,1-.2.61A1,1,0,0,1,63.74,76.25Z" transform="translate(-2.56 -2.22)"/><path d="M67,76.4a.48.48,0,0,0,.42-.18.84.84,0,0,0,.15-.55.86.86,0,0,0-.15-.55.48.48,0,0,0-.42-.19.49.49,0,0,0-.43.19.86.86,0,0,0-.14.55.84.84,0,0,0,.14.55A.48.48,0,0,0,67,76.4Zm-1.34,2v-.77a3,3,0,0,0,.5.18,1.82,1.82,0,0,0,.46.06,1,1,0,0,0,.76-.27,1.2,1.2,0,0,0,.31-.8,1.31,1.31,0,0,1-.4.22,1.78,1.78,0,0,1-.47.07,1.4,1.4,0,0,1-1-.38,1.26,1.26,0,0,1-.39-1,1.4,1.4,0,0,1,.43-1.08A1.69,1.69,0,0,1,67,74.25a1.58,1.58,0,0,1,1.28.55,2.44,2.44,0,0,1,.44,1.57A2.35,2.35,0,0,1,68.18,78a1.82,1.82,0,0,1-1.44.59,5.1,5.1,0,0,1-.57,0A3.41,3.41,0,0,1,65.64,78.42Z" transform="translate(-2.56 -2.22)"/><polygon points="82.95 86.55 83.91 86.55 83.91 83.84 82.93 84.04 82.93 83.3 83.9 83.1 84.93 83.1 84.93 86.55 85.89 86.55 85.89 87.3 82.95 87.3 82.95 86.55"/><rect x="86.87" y="86.21" width="1.01" height="1.09"/><path d="M92.69,88.72h1.85v.79H91.49v-.79L93,87.37a1.36,1.36,0,0,0,.3-.36.74.74,0,0,0,.1-.37.64.64,0,0,0-.2-.48A.73.73,0,0,0,92.7,86a1.68,1.68,0,0,0-.56.11,3.47,3.47,0,0,0-.64.32v-.92a4.74,4.74,0,0,1,.72-.18,4.26,4.26,0,0,1,.7-.07,1.85,1.85,0,0,1,1.17.34,1.11,1.11,0,0,1,.42.92,1.19,1.19,0,0,1-.18.64,4.05,4.05,0,0,1-.74.79Z" transform="translate(-2.56 -2.22)"/><path d="M96.51,86.44a.54.54,0,0,0,.13.39A.57.57,0,0,0,97,87a.53.53,0,0,0,.39-.13.51.51,0,0,0,.14-.39.47.47,0,0,0-.14-.38.53.53,0,0,0-.39-.14.57.57,0,0,0-.4.14A.52.52,0,0,0,96.51,86.44Zm-.26.84a1.05,1.05,0,0,1-.57-.35.92.92,0,0,1-.2-.6.9.9,0,0,1,.4-.81A2,2,0,0,1,97,85.24a2.07,2.07,0,0,1,1.16.28,1,1,0,0,1,.2,1.41,1.08,1.08,0,0,1-.58.35,1.24,1.24,0,0,1,.65.39,1,1,0,0,1,.22.66,1.08,1.08,0,0,1-.42.94,1.94,1.94,0,0,1-1.23.32,2,2,0,0,1-1.24-.32,1.1,1.1,0,0,1-.41-.94,1,1,0,0,1,.22-.66A1.21,1.21,0,0,1,96.25,87.28Zm.79.36a.59.59,0,0,0-.46.17.61.61,0,0,0-.17.47.63.63,0,0,0,.17.47.59.59,0,0,0,.46.17.57.57,0,0,0,.62-.64.61.61,0,0,0-.16-.47A.62.62,0,0,0,97,87.64Z" transform="translate(-2.56 -2.22)"/><text class="cls-9" transform="translate(99.79 101.22)">Refe<tspan class="cls-10" x="13.42" y="0">r</tspan><tspan x="16.36" y="0">ence</tspan></text></svg>