<?xml version="1.0" standalone="no"?><!DOCTYPE svg PUBLIC "-//W3C//DTD SVG 1.1//EN" "http://www.w3.org/Graphics/SVG/1.1/DTD/svg11.dtd"><svg t="1718819196333" class="icon" viewBox="0 0 1024 1024" version="1.1" xmlns="http://www.w3.org/2000/svg" p-id="8837" xmlns:xlink="http://www.w3.org/1999/xlink" width="256" height="256"><path d="M797.1 135.3c-29.4-29.4-148.5-42-154.2-43.2v6.1c0 74.1-30.8 142-80.2 185.3L254.2 567.6c-12.3 12.4-12.3 30.9-12.3 43.2l30.8 105c18.5 123.5 123.4 216.1 252.9 216.1 129.6 0 234.4-92.6 252.9-216.1 6.3 18.5-12.2-352 18.6-580.5zM661.4 641.7c0 6.2-6.2 18.5-18.5 18.5H575l49.4 43.2c6.2 6.2 6.2 18.5 0 24.7-6.2 6.2-18.5 6.2-24.7 0l-67.9-67.9h-98.7c-6.2 0-18.5-6.2-18.5-18.5 0-6.2 6.2-18.5 18.5-18.5h209.7c6.3 0 18.6 6.1 18.6 18.5z m-74 142c0 6.2-6.2 18.5-18.5 18.5-49.4 0-92.5-18.5-129.6-55.6l-6.2-6.2c-6.2-12.4-6.2-18.5 0-24.7 6.2-6.2 18.5-6.2 24.7 0l6.2 6.2c30.8 30.9 67.9 43.2 104.9 43.2 12.3 0.1 18.5 6.3 18.5 18.6zM642.9 512c0 12.3 0 18.5-6.2 24.7l-43.2 49.4c-6.2 6.2-18.5 6.2-24.7 0-6.2-6.2-6.2-18.5 0-24.7l49.4-49.4c6.2-6.2 18.5-6.2 24.7 0z m-290 43.2l234.4-216.1c6.2-6.2 18.5-6.2 24.7 0 0 12.4 0 18.5-6.2 24.7L464 493.5h49.4c6.2 0 18.5 6.2 18.5 18.5s-6.2 18.5-18.5 18.5H427l-55.5 49.4c-6.2 6.2-12.3 6.2-18.5 0-6.2-6.1-6.2-18.5-0.1-24.7z m-61.7 105c-6.2 6.2-18.5 6.2-24.7 0-6.2-6.2-6.2-18.5 0-24.7l6.2-6.2c6.2-12.4 12.3-24.7 12.3-37 6.2-12.4 6.2-12.4 0-12.4v-12.4c0-6.2 0-18.5 12.3-18.5 6.2 0 18.5 0 18.5 12.4 6.2 12.4 6.2 18.5 6.2 30.9 0.1 24.7-12.2 49.4-30.8 67.9z m382.5 154.4c-37 30.9-86.4 49.4-129.6 49.4-104.9 0-191.2-80.3-203.6-185.3-6.2-6.2 0-12.4 12.3-12.4 6.2 0 18.5 6.2 18.5 12.4 6.2 86.5 80.2 154.4 166.6 154.4 43.2 0 80.2-12.3 111-43.2 6.2-6.2 18.5-6.2 24.7 0 6.3 6.2 6.3 18.5 0.1 24.7zM642.9 92.1c-0.3 0-0.3 0 0 0z" fill="#d4237a" p-id="8838"></path></svg>